<?xml version="1.0" encoding="UTF-8"?>
<svg width="149px" height="54px" viewBox="0 0 149 54" version="1.1" xmlns="http://www.w3.org/2000/svg" xmlns:xlink="http://www.w3.org/1999/xlink">
    <!-- Generator: sketchtool 64 (101010) - https://sketch.com -->
    <title>401BC2F6-A711-4CCE-B38F-2073A2F119D2</title>
    <desc>Created with sketchtool.</desc>
    <g id="Desktop-Design-v2" stroke="none" stroke-width="1" fill="none" fill-rule="evenodd">
        <g id="[v2]-Tentang-Kami" transform="translate(-220.000000, -4783.000000)" fill="#FF0000">
            <g id="Footer---White" transform="translate(0.000000, 4735.000000)">
                <g id="Menus">
                    <g transform="translate(220.000000, 48.000000)">
                        <g id="Logo-&amp;-Text">
                            <path d="M135.523591,15.6376904 C140.347766,15.6376904 143.875809,16.6814055 146.748664,18.3827474 C148.9165,19.6701877 149.447415,22.4741218 147.900801,24.3875235 L147.763136,24.5492923 L145.254729,27.3473114 C142.304783,24.753895 139.297864,23.1612374 135.470892,23.1612374 C130.333188,23.1612374 126.352924,26.4564445 124.937149,31.0044546 C124.626514,32.0070681 124.432561,33.067137 124.384752,34.1720643 L124.373296,34.6483142 L124.367955,34.7126623 L124.367955,35.4596518 C124.367955,35.6735702 124.390032,35.8869712 124.40018,36.1012347 C124.738634,41.8045771 129.530049,46.4826635 135.492791,46.4752453 C138.892822,46.4686898 141.266631,45.4306676 143.569402,43.7227702 C144.089991,43.338407 144.609327,42.9243437 145.135249,42.4756338 L145.531048,42.1325279 L147.799278,44.3552098 C148.615592,45.1491233 148.994462,46.1817975 148.99999,47.2134366 C149.002652,48.457614 148.446632,49.696961 147.310736,50.496395 C144.17634,52.7075184 140.450317,54 135.194217,54 C123.983388,54 115.640785,45.6466563 115.568323,35.0676979 L115.566008,34.996018 L115.566008,34.996018 L115.563694,34.923303 L115.563694,34.8180689 C115.563694,34.3170856 115.5904,33.8221404 115.626008,33.3301279 C115.633129,33.2336921 115.653782,33.1384639 115.661082,33.041683 C115.722505,32.3659422 115.823988,31.7046926 115.950219,31.0517237 C117.65157,22.2960753 125.210441,15.6376904 135.523591,15.6376904 Z M33.3012734,41.8898792 L40.7138457,49.3788007 L40.7138457,53.9342149 L36.5222667,53.9342149 L28.9516636,46.2852776 L33.3012734,41.8898792 Z M26.7273319,48.5323961 L32.0736033,53.9342149 L23.3733336,53.9342149 L22.376847,52.9274408 L26.7273319,48.5323961 Z M40.7138457,21.6207257 L40.7138457,30.4116992 L34.843255,36.3427199 L34.842905,36.3421895 L17.4315154,53.9342149 L8.73107075,53.9342149 L32.2745106,30.1473636 L40.7138457,21.6207257 Z M40.7138457,12.8018156 L40.7138457,17.1263119 L28.2700135,29.6994958 L28.2698385,29.699319 L4.28223231,53.9342149 L0,53.9342149 L0,49.4698594 L25.7002191,23.5043163 L36.2940583,12.8018156 L40.7138457,12.8018156 Z M63.0993706,15.6730559 C66.9049778,15.6730559 70.3269085,16.4636917 73.3498514,17.9214426 C75.5347697,18.9752227 76.2925965,21.6126991 75.0271205,23.5961008 L74.9101949,23.7693525 L72.9448102,26.5378715 C69.5533243,24.2584322 66.2148943,22.8791756 62.9898759,22.8791756 C59.8624127,22.8791756 58.173197,24.2263949 58.0736921,25.9483916 L58.0690255,26.1108971 L58.0690255,26.2161312 C58.0690255,28.6535941 59.709487,29.4481978 66.3275937,31.0919197 C68.087164,31.5358005 69.6617507,32.0203948 71.0613239,32.5781355 C72.3722332,33.0986129 73.5170311,33.6817133 74.4939371,34.3610769 C74.8288305,34.5929369 75.1484125,34.8385981 75.4450273,35.0959904 C76.2066829,35.7570674 76.8298232,36.5023318 77.3069707,37.3461021 C78.0163537,38.5976632 78.4102781,40.0707364 78.4596485,41.8348913 L78.4649435,42.2174052 L78.4649435,42.3257446 C78.4649435,49.6878177 72.6699163,53.8205845 64.4138406,53.8205845 C60.1743497,53.8205845 55.9076187,52.772384 52.1246226,50.6545912 C51.3083087,50.200877 50.7170376,49.5209958 50.376981,48.7538221 C49.8181487,47.4931867 49.9325706,45.9881107 50.8405327,44.8036101 L50.9905072,44.6193301 L51.269674,44.294312 L53.1490654,42.1149314 C53.4122086,42.3229843 53.6773103,42.5127507 53.942234,42.7154557 C55.1386635,43.6085653 56.357348,44.3760841 57.627308,44.9879944 C59.7646795,46.0232563 62.0411002,46.6177426 64.5772815,46.6177426 C67.9273533,46.6177426 69.9843126,45.3626402 70.0960032,43.2977582 L70.1007976,43.1187955 L70.1007976,43.0139065 C70.1007976,41.9211971 69.7221063,41.1152076 68.437903,40.3606274 C67.3342324,39.7111088 65.5657601,39.1035114 62.7650113,38.3943026 C62.6357541,38.3603172 62.5214524,38.3304721 62.3921953,38.2964867 C61.1863297,37.9995886 60.0591578,37.6926846 58.9999972,37.3697367 C56.5478509,36.6141214 54.4895293,35.7399885 52.9452094,34.4959836 C50.9456595,32.8899532 49.7862657,30.6752098 49.7086851,27.3227253 L49.7045235,26.9591529 L49.7045235,26.8532287 C49.7045235,20.1258379 55.2821638,15.6730559 63.0993706,15.6730559 Z M98.8464403,16.2033667 C107.742603,16.2033667 113.127373,20.6848697 113.277292,28.1207437 L113.280507,28.4412283 L113.280507,28.5481875 C113.280507,29.4809756 113.185612,30.3511407 113.024308,31.1745543 C112.936712,31.6343065 112.831134,32.0809476 112.699563,32.5067143 C112.65345,32.6652555 112.610721,32.832595 112.554282,32.9845806 C112.329239,33.6116722 112.043841,34.1852842 111.729066,34.7390571 C110.359144,37.1387752 108.164628,38.8587936 105.43933,39.9129295 L105.080871,40.0466503 L114.430112,53.2906188 L106.894921,53.2906188 C105.533419,53.2906188 104.256084,52.6687936 103.443279,51.6223564 L103.304742,51.4333234 L96.3866382,41.4221116 L89.77049,41.4221116 L89.77049,49.4858028 C89.77049,51.728674 87.9481995,53.5613543 85.6591558,53.6672188 L85.4498128,53.6720492 L81.3490151,53.6720492 L81.3490151,16.2033667 L98.8464403,16.2033667 Z M39.9382974,35.1563315 L40.776498,36.0488366 L40.776498,45.3184353 L35.5867619,39.7911309 L39.9382974,35.1563315 Z M31.8450449,12.8018156 L21.694322,23.0571558 L0,44.9750921 L0,36.1848258 L23.1446002,12.8018156 L31.8450449,12.8018156 Z M98.1367724,23.5673375 L89.77049,23.5673375 L89.77049,34.217027 L98.3009254,34.217027 C98.7043643,34.217027 99.0859042,34.1892521 99.4519547,34.1504362 C101.275976,33.9499739 102.673946,33.2818237 103.573049,32.2622607 C103.665808,32.1585793 103.730436,32.0350586 103.812869,31.9237865 C103.912393,31.7842219 104.023668,31.6544907 104.108594,31.5018151 C104.479708,30.8539258 104.698895,30.1092578 104.743022,29.2842892 L104.751318,28.9711941 L104.751318,28.8650974 C104.751318,25.3689106 102.23757,23.5673375 98.1367724,23.5673375 Z M0,21.5293133 L5.38039766,26.9652571 L1.03008784,31.3599482 L0,30.319226 L0,21.5293133 Z M4.51096572,12.8018156 L11.9545142,20.3222098 L7.60350432,24.7181386 L0,17.0352532 L0,12.8018156 L4.51096572,12.8018156 Z M18.3337648,12.7192459 L19.2761626,13.5650088 L14.5573406,17.8002978 L8.89669034,12.7192459 L18.3337648,12.7192459 Z M31.2222853,0 L35.5542288,4.61181374 L35.5867619,4.61181374 L35.5867619,10.1621038 L31.2224593,10.1621038 L31.2224593,4.64644864 L11.0369944,4.64644864 L11.0369944,10.1621038 L6.67251785,10.1621038 L6.67251785,4.61181374 L6.70505092,4.61181374 L11.0368204,0 L31.2222853,0 Z" id="Logo_SRC"></path>
                        </g>
                    </g>
                </g>
            </g>
        </g>
    </g>
</svg>